#define bat1_width 16
#define bat1_height 16
static char bat1_bits[] = {
  0x00, 0x00, 0x00, 0x00, 0x00, 0x00, 0x00, 0x00, 0xFF, 0x7F, 0x01, 0x40, 
  0xFD, 0xDF, 0xFD, 0x9F, 0xFD, 0x9F, 0xFD, 0xDF, 0x01, 0x40, 0xFF, 0x7F, 
  0x00, 0x00, 0x00, 0x00, 0x00, 0x00, 0x00, 0x00, };
