#define music2_width 16
#define music2_height 16
static unsigned char music2_bits[] = {
   0xe0, 0x07, 0xf8, 0x1f, 0x3c, 0x3c, 0x0e, 0x70, 0x06, 0x60, 0x07, 0xe0,
   0x03, 0xc0, 0x03, 0xc0, 0x03, 0xc0, 0x03, 0xc0, 0x33, 0xcc, 0x3b, 0xdc,
   0x3f, 0xfc, 0x3e, 0x7c, 0x38, 0x1c, 0x30, 0x0c };
