#define fwd2_width 16
#define fwd2_height 16
static unsigned char fwd2_bits[] = {
   0x00, 0x00, 0x00, 0x00, 0x80, 0x20, 0xc0, 0x30, 0xe0, 0x38, 0xf0, 0x3c,
   0xf8, 0x3e, 0xfc, 0x3f, 0xfe, 0x3f, 0xfc, 0x3f, 0xf8, 0x3e, 0xf0, 0x3c,
   0xe0, 0x38, 0xc0, 0x30, 0x80, 0x20, 0x00, 0x00 };
